<svg xmlns="http://www.w3.org/2000/svg" version="1.1" xmlns:xlink="http://www.w3.org/1999/xlink" xmlns:svgjs="http://svgjs.dev/svgjs" width="1000" height="623" viewBox="0 0 1000 623"><g transform="matrix(1,0,0,1,-0.6060606060606233,0.2522267206477409)"><svg viewBox="0 0 396 247" data-background-color="#ffffff" preserveAspectRatio="xMidYMid meet" height="623" width="1000" xmlns="http://www.w3.org/2000/svg" xmlns:xlink="http://www.w3.org/1999/xlink"><g id="tight-bounds" transform="matrix(1,0,0,1,0.2400000000000091,-0.09999999999999432)"><svg viewBox="0 0 395.52 247.2" height="247.2" width="395.52"><g><svg></svg></g><g><svg viewBox="0 0 395.52 247.2" height="247.2" width="395.52"><g transform="matrix(1,0,0,1,129.60632068965518,47.215199999999996)"><svg viewBox="0 0 136.30735862068963 152.7696" height="152.7696" width="136.30735862068963"><g><svg viewBox="0 0 136.30735862068963 152.7696" height="152.7696" width="136.30735862068963"><g><svg viewBox="0 0 136.30735862068963 152.7696" height="152.7696" width="136.30735862068963"><g><svg viewBox="0 0 136.30735862068963 152.7696" height="152.7696" width="136.30735862068963"><g><svg viewBox="0 0 136.30735862068963 152.7696" height="152.7696" width="136.30735862068963" id="textblock"><g><svg viewBox="0 0 136.30735862068963 152.7696" height="152.7696" width="136.30735862068963"><g transform="matrix(1,0,0,1,0,0)"><svg width="136.30735862068963" viewBox="1 -33.900001525878906 31.049999237060547 34.80000305175781" height="152.7696" data-palette-color="#8bc53f"><path d="M18.2 0.9L18.2 0.9Q13.1 0.9 9.22-1.23 5.35-3.35 3.18-7.28 1-11.2 1-16.55L1-16.55Q1-21.75 3.15-25.65 5.3-29.55 9.38-31.73 13.45-33.9 19.25-33.9L19.25-33.9Q21.9-33.9 24.18-33.3 26.45-32.7 28.5-31.55L28.5-31.55 28.7-24.55 28.2-24.55 25.4-29.75Q24.75-31 24.2-31.55 23.65-32.1 22.8-32.4L22.8-32.4Q22-32.65 21.33-32.77 20.65-32.9 19.55-32.9L19.55-32.9Q16.45-32.9 14.08-31.25 11.7-29.6 10.4-26 9.1-22.4 9.1-16.55L9.1-16.55Q9.1-10.75 10.33-7.1 11.55-3.45 13.8-1.78 16.05-0.1 19-0.1L19-0.1Q19.45-0.1 19.88-0.18 20.3-0.25 20.7-0.35L20.7-0.35Q21.65-0.5 21.95-1.15 22.25-1.8 22.25-2.7L22.25-2.7 22.25-12.6Q22.25-14.55 20.25-15L20.25-15 17.95-15.6 17.95-16.1 32.05-16.1 32.05-15.6 31.35-15.4Q29.45-14.8 29.45-12.9L29.45-12.9 29.45-2.05Q26.85-0.6 24.18 0.15 21.5 0.9 18.2 0.9Z" opacity="1" transform="matrix(1,0,0,1,0,0)" fill="#8bc53f" class="undefined-text-0" data-fill-palette-color="primary" id="text-0"></path></svg></g></svg></g></svg></g></svg></g></svg></g></svg></g></svg></g><path d="M83.612 41.215L83.612 0 330.812 0 330.812 247.2 83.612 247.2 83.612 205.985 97.389 205.985 97.389 233.423 317.035 233.423 317.035 13.777 97.389 13.777 97.389 41.215Z" fill="#8bc53f" stroke="transparent" data-fill-palette-color="primary"></path></svg></g><defs></defs></svg><rect width="395.52" height="247.2" fill="none" stroke="none" visibility="hidden"></rect></g></svg></g></svg>